<?xml version="1.0" standalone="no"?>
<!DOCTYPE svg PUBLIC "-//W3C//DTD SVG 20010904//EN"
 "http://www.w3.org/TR/2001/REC-SVG-20010904/DTD/svg10.dtd">
<svg version="1.0" xmlns="http://www.w3.org/2000/svg"
 width="245.000000pt" height="245.000000pt" viewBox="0 0 245.000000 245.000000"
 preserveAspectRatio="xMidYMid meet">
<metadata>
Created by potrace 1.11, written by Peter Selinger 2001-2013
</metadata>
<g transform="translate(0.000000,245.000000) scale(0.100000,-0.100000)"
fill="#000000" stroke="none">
<path d="M885 2411 c-53 -31 -70 -76 -69 -182 1 -52 6 -105 12 -119 30 -74
131 -104 197 -59 49 34 63 75 61 190 -2 104 -13 134 -61 165 -36 24 -104 26
-140 5z"/>
<path d="M359 2282 c-19 -10 -44 -32 -56 -51 l-23 -34 0 -1034 c0 -1122 -3
-1059 55 -1113 l27 -25 844 -1 c936 -1 885 -5 931 64 21 33 22 35 20 475 -2
416 -3 444 -21 470 -55 80 -176 77 -226 -6 -18 -28 -20 -51 -20 -195 0 -177
-9 -218 -53 -247 -31 -20 -87 -30 -122 -21 -26 7 -84 60 -87 80 0 6 -2 115 -3
241 -2 268 -8 290 -78 324 -50 23 -96 20 -138 -10 -53 -37 -53 -41 -55 -371
-1 -324 -1 -324 -49 -371 -24 -24 -80 -37 -117 -26 -41 11 -83 46 -93 79 -5
14 -9 132 -9 262 l-1 237 -30 32 c-43 45 -79 58 -129 47 -47 -10 -105 -65
-107 -100 0 -13 -2 -64 -2 -113 -2 -98 -14 -130 -63 -161 -57 -38 -152 -16
-186 44 -16 27 -18 84 -18 734 -1 677 -1 705 -20 735 -37 62 -111 85 -171 55z"/>
<path d="M900 1884 c-19 -8 -46 -30 -59 -49 -23 -35 -24 -39 -24 -268 -1 -198
2 -237 16 -267 33 -69 123 -93 191 -51 56 35 60 53 62 301 1 196 -1 230 -16
267 -28 65 -102 94 -170 67z"/>
<path d="M1440 1752 c-30 -13 -57 -37 -70 -62 -16 -30 -23 -193 -9 -236 35
-111 192 -125 245 -22 23 45 23 212 -1 258 -29 55 -111 86 -165 62z"/>
<path d="M2005 1492 c-94 -12 -145 -124 -92 -203 58 -86 172 -83 228 7 29 48
17 128 -24 162 -25 21 -81 38 -112 34z"/>
</g>
</svg>
